# xmcd
#
# Track frame offsets: 
#        150
#        36283
#        60552
#        76630
#        103496
#        126283
#        146706
#        166601
#        180616
#
# Disc length: 2614 seconds
#
# Revision: 0
# Processed by: cddbd v1.5.2PL0 Copyright (c) Steve Scherf et al.
# Submitted via: ExactAudioCopyFreeDBPlugin 1.0
#
DISCID=740a3409
DTITLE=Blue Magic - Mystic Dragons
DYEAR=1976
DGENRE=Soul
TTITLE0=Freak-N-Stein
TTITLE1=To Get Love (You Must Give Love)
TTITLE2=See the Bedroom
TTITLE3=Mother Funk
TTITLE4=Summer Snow
TTITLE5=Rock N Roll Revival
TTITLE6=It's Something About Love
TTITLE7=Making Love to a Memory
TTITLE8=Spark of Love
EXTD=
EXTT0=
EXTT1=
EXTT2=
EXTT3=
EXTT4=
EXTT5=
EXTT6=
EXTT7=
EXTT8=
PLAYORDER=
